<svg xmlns="http://www.w3.org/2000/svg" viewBox="0 0 1200 600">
  <defs>
    <linearGradient id="bg" x1="0" y1="0" x2="0" y2="1">
      <stop stop-color="#e0f2fe" offset="0%" />
      <stop stop-color="#f8fafc" offset="100%" />
    </linearGradient>
  </defs>
  <rect width="1200" height="600" fill="url(#bg)" />
  <path d="M180 260c40-20 70-60 130-60 35 0 55 30 90 40 45 15 70-35 110-35 30 0 38 30 70 35 40 7 80-58 118-45 30 10 40 80 75 100 45 28 95-18 108 35 15 60-82 20-105 40-18 15-10 54 5 80 20 36 82 22 110 10 20-8 32 24 10 32-30 12-82 2-98 30-18 32 8 76-10 92-28 24-108-2-132-10-40-14-80 4-110-24-26-24-24-70-56-90-32-20-54-4-85-10-40-8-58-42-88-66-28-22-80-8-110-25-22-12-30-24-28-50z" fill="#38bdf8" opacity="0.65" />
  <path d="M550 200c45-20 90-30 135-18 35 10 60 45 94 45 36 0 64-35 100-32 33 3 45 50 70 68 28 20 68 16 100 30 24 10 35 40 60 48 26 8 60-14 88 5 28 20 30 58 18 90-18 47-88 28-126 20-44-10-78 12-104-20-22-28-10-72-42-90-32-18-84-15-110-40-24-23-20-60-46-84-20-18-50-22-78-32-40-14-74-16-100-40z" fill="#0284c7" opacity="0.7" />
  <path d="M220 380c34-4 66 7 96 24 30 16 55 45 88 48 32 3 68-18 88 10 24 34-20 62-48 78-24 14-54 15-82 8-21-5-42-17-66-18-18-1-32 12-50 8-18-4-32-20-48-28-20-10-36-18-54-36-18-18-28-44-16-68 14-28 60-38 98-24z" fill="#38bdf8" opacity="0.7" />
  <path d="M900 420c24-24 42-58 74-68 32-10 70 8 92 34 16 18 28 46 18 70-16 36-56 44-96 42-28-2-56-18-78-30-14-8-30-8-40-18-12-12-10-30 10-30z" fill="#0284c7" opacity="0.7" />
  <circle cx="160" cy="240" r="14" fill="#7dd3fc" />
  <circle cx="240" cy="120" r="12" fill="#7dd3fc" />
  <circle cx="520" cy="160" r="10" fill="#7dd3fc" />
  <circle cx="820" cy="180" r="12" fill="#7dd3fc" />
  <circle cx="980" cy="340" r="12" fill="#7dd3fc" />
</svg>
